<?xml version="1.0" encoding="UTF-8"?><svg id="Calque_2" xmlns="http://www.w3.org/2000/svg" viewBox="0 0 160 160"><defs><style>.cls-1{fill:none;}.cls-1,.cls-2{stroke-width:0px;}.cls-2{fill:#808c54;}</style></defs><g id="team"><rect class="cls-1" width="160" height="160"/></g><g id="energie"><path class="cls-2" d="M33.8,81.13c4.41-5.32,9.73-9.78,15.76-13.15,4.91-2.73,9.81-5.2,14.26-8.68,3.37-2.64,6.47-5.61,9.34-8.79.49-.54-1.8-3.28-1.79-3.29-4.53,5.02-9.65,9.49-15.43,13.01-5.26,3.2-10.86,5.61-15.71,9.49-3.01,2.41-5.76,5.14-8.22,8.11-.49.59,1.84,3.24,1.79,3.29h0Z"/><path class="cls-2" d="M67.98,62.36c7.34-6.54,15.97-11.51,25.39-14.36,4.53-1.37,9.18-2.56,13.85-3.31,2.88-.46,5.87-.79,8.78-.38.91.13,1.16.18,2.07.5,1.85.66,3.56,1.68,5.06,2.94.5.42,1.46.91,1.9.15.42-.72-.31-1.85-.83-2.29-2.37-1.98-5.13-3.65-8.17-4.32-2.5-.56-5.11-.44-7.64-.18-4.89.49-9.69,1.72-14.42,3.01-5.13,1.4-10.07,3.3-14.76,5.81s-9.44,5.82-13.58,9.51c-1.16,1.04,1.21,3.94,2.35,2.92h0Z"/><path class="cls-2" d="M124.03,50.92c1.63,4.3,2.26,8.96.92,13.43-1.13,3.8-3.6,6.9-6.52,9.52-2.24,2.01-4.57,3.9-6.77,5.95-2.82,2.62-5.55,5.35-8.18,8.15-3.84,4.09-7.5,8.35-11.03,12.71-.97,1.2,2.53,2.44,3.4,1.36,5.79-7.15,11.94-14.04,18.66-20.34,4.96-4.65,11.11-8.57,13.65-15.17,1.92-4.97,1.38-10.44-.47-15.34-.31-.81-1.27-1.18-2.08-1.24-.46-.03-1.88.14-1.57.96h0Z"/><path class="cls-2" d="M86.51,97.39c8.02-6.07,15.9-12.33,23.59-18.82,3.42-2.89,7.25-5.71,9.82-9.44,2.17-3.15,3.22-6.9,2.78-10.71-.53-4.54-3.83-8.92-8.4-9.94-2.26-.51-4.63-.32-6.91-.06-2.76.32-5.51.83-8.22,1.48-7.9,1.89-15.16,5.13-22.31,8.9-9.22,4.88-18.42,9.81-27.58,14.8-.54.29,1.46,3.43,2.24,3.01,7.27-3.96,14.56-7.88,21.86-11.76,6.85-3.64,13.57-7.38,20.94-9.88,4.87-1.66,9.89-2.87,15-3.47,2.17-.25,4.4-.43,6.56-.02,1.09.21,2.19.57,3.09,1.24.72.54.97,1.35,1.16,2.2.84,3.61-.12,7.57-2.07,10.64-2.23,3.5-5.6,6.1-8.72,8.76-8.15,6.94-16.53,13.61-25.07,20.07-.6.45,1.64,3.46,2.24,3.01h0Z"/><path class="cls-2" d="M69.27,69.58c-9.9,4.55-19.5,9.73-28.75,15.5-.91.57.91,1.67,1.28,1.83.96.42,2.24.69,3.17.11,9.04-5.63,18.43-10.68,28.11-15.12,1-.46.2-1.36-.42-1.74-.85-.53-2.4-1.03-3.4-.58h0Z"/><path class="cls-2" d="M64.56,78.18c-5.8,2.65-11.6,5.33-17.27,8.25-3.03,1.56-6.17,3.12-8.88,5.21-.97.75-3.79,3.52-1.1,4.01,1.37.25,2.94-.12,4.29-.36,2.01-.36,4.01-.8,6.02-1.16,1.62-.29,3.47-.64,4.89-.57.29.01.59.03.87.1-.28-.08.26.15.35.19-.19-.07.1.17,0,.02.02.04.01.18,0,.22.1-.48,0-.04-.05.05-.16.33.19-.39.02-.04-.05.1-.12.2-.19.3-.26.37.32-.38.01,0-.09.11-.19.22-.28.33-.11.13-.82.85-.36.4-.32.31-.64.6-.97.89-.65.56-1.32,1.1-2,1.63-.18.14-.37.28-.55.42-.04.03-.66.49-.23.17-.46.34-.92.68-1.38,1.01-3.09,2.22-6.28,4.28-9.4,6.45-1.05.73-2.14,1.45-3.08,2.31-.65.6-2.25,2.51-.46,2.73.85.1,1.81-.31,2.58-.62,1.34-.52,2.66-1.11,3.97-1.72,3.46-1.59,6.87-3.29,10.28-4.97s6.84-3.38,10.3-5c1.26-.59,2.53-1.17,3.82-1.72.44-.19-.53.2-.1.04.1-.04.21-.08.31-.12.18-.06.36-.13.54-.19.25-.09.71-.08-.05-.01.49-.05-.35-.01-.47-.1-.46-.32-.26-.65-.07-1.12.14-.35.33-.44.13-.2.55-.66-.04,0-.24.17-.23.19-.46.36-.7.54-.53.41.45-.33-.12.09-.24.18-.48.35-.72.53-1.75,1.28-3.53,2.53-5.21,3.91-1.1.91-3.21,2.45-3.22,4.06s2.54,1.11,3.53.89c1.92-.42,3.83-1.12,5.62-1.38.19-.03.38-.06.57-.07-.35,0,.15.03.18.02.13-.03,0-.08.08.07-.27-.52.03-.11-.05-.08-.09.04.06-.3.02-.1-.01.05-.05.2-.09.23.32-.28.1-.15-.04.03-.43.52.18-.15-.2.28-.2.23-.4.46-.61.69-.11.12-.85.86-.43.45-.33.32-.67.64-1.02.95-1.44,1.3-2.94,2.54-4.45,3.76-2.88,2.33-5.86,4.55-8.69,6.95-.98.83-2.08,1.7-2.77,2.8-.8,1.28-.09,2.01,1.3,1.84,1.69-.21,3.37-1.03,4.88-1.74,2.6-1.23,5.11-2.7,7.5-4.3,6.21-4.15,11.71-9.27,16.18-15.27,1.65-2.21,3.15-4.53,4.49-6.94.48-.86.09-1.49-.9-1.38-1.07.11-2.43.98-2.96,1.93-5.73,10.26-14.67,19.16-25.56,23.85-.68.29.4-.15-.24.1-.18.07-.36.13-.53.2-.29.1-.59.2-.89.27.6-.15.2-.07.08-.04-.29.08.34.1.14,0,.31.16.48.23.43.74,0,.11-.25.42-.26.43.14-.13.27-.29.4-.43-.57.63.06-.05.22-.19.23-.21.47-.41.7-.61,2.74-2.34,5.62-4.49,8.43-6.75s5.57-4.35,7.77-7.01c.62-.75,1.62-1.92,1.46-2.99-.24-1.58-2.67-1.12-3.72-.91-1.88.37-3.98,1.11-5.61,1.4-.18.03-.36.06-.55.08-.3.03.02-.13-.14,0-.12.11.08-.09.08.23,0-.16-.07.41-.04.19.04-.32-.26.29,0,0,.08-.09.6-.6.15-.18,2.63-2.51,5.41-3.86,8.28-6.39.66-.58,2.56-2.64.66-2.91-.84-.12-1.81.32-2.58.62-2.85,1.11-5.6,2.48-8.35,3.81-6.44,3.12-12.79,6.5-19.37,9.32-.25.11-.51.21-.76.32.74-.31.07-.03-.09.03-.18.06-.36.12-.54.19-.44.16-.33.06,0,.02-.37.04.41,0,.52.08.39.26.28.67.08,1.1-.12.26-.33.45-.41.48.19-.08.4-.33.56-.46.45-.37-.47.33.24-.17.22-.16.44-.31.66-.47.69-.48,1.38-.95,2.08-1.42,1.56-1.06,3.13-2.1,4.68-3.17,3.14-2.16,6.37-4.33,9.15-6.95,1.15-1.09,4.83-4.66,1.95-5.89-1.37-.58-3.15-.31-4.57-.14-1.95.23-3.87.63-5.8,1.01-1.72.34-3.45.73-5.19.92-.1.01-.89.06-.46.05-.22,0-.47-.06-.69-.03-.02,0,.08,0,.12.07.07.12.05.2.02.39,0-.06-.5.68-.16.31,0,0-.44.51-.04.06.06-.07.15-.11.21-.17.43-.39-.49.31-.12.09,1.03-.63,2.01-1.32,3.06-1.92-.56.32.32-.18.49-.27.4-.22.79-.43,1.19-.65.96-.51,1.93-1.02,2.9-1.51,2.4-1.22,4.81-2.4,7.24-3.55,3.12-1.49,6.26-2.94,9.4-4.37.76-.35,2.27-1.36,2.13-2.36-.14-1.06-1.69-.5-2.25-.25h0Z"/><path class="cls-2" d="M74.94,118.48c4.74-5.83,9.48-11.66,14.22-17.5,1.29-1.58-2.18-2.64-3.15-1.44-4.74,5.83-9.48,11.66-14.22,17.5-1.29,1.58,2.18,2.64,3.15,1.44h0Z"/><path class="cls-2" d="M98.63,107.16c6.93-6.93,13.85-13.85,20.78-20.78,1.33-1.33-1.11-4.18-2.42-2.86-6.93,6.93-13.85,13.85-20.78,20.78-1.33,1.33,1.11,4.18,2.42,2.86h0Z"/><path class="cls-2" d="M102.34,60.35c-2.1,1.01-2.91-.23-6.56,0-3.57.23-7.96,1.74-8.75,4.37-.1.32-.23.78,0,1.09,1.09,1.47,8.38-2.81,8.75-2.19.28.48-3.26,4.33-8.75,6.56-3.35,1.36-6.28,1.66-6.56,3.28-.14.79.38,1.72,1.09,2.19,2.9,1.89,9.56-3.67,9.84-3.28.31.44-8.66,6.22-7.65,8.75.38.94,1.99,1.08,2.19,1.09,2.48.21,4.34-2.09,6.56-4.37,4.8-4.93,9.51-7.98,9.84-7.65.41.4-5.45,6.3-4.37,7.65.43.54,1.8.12,2.19,0,.97-.3,1.87-.92,4.37-4.37,1.33-1.84,2-2.76,2.19-3.28.97-2.69-.01-4.81,1.09-5.47.71-.42,1.29.35,2.19,0,1.68-.64,2.87-4.54,1.09-6.56-1.09-1.24-3-1.44-4.37-1.09-2.15.55-2.24,2.26-4.37,3.28Z"/><path class="cls-2" d="M101.31,59.71c-1.23.55-2.29.31-3.56.12-1.7-.25-3.44-.17-5.13.15s-3.29.85-4.69,1.77c-.95.63-2.41,1.94-2.11,3.25.2.9,1.57,1.49,2.38,1.68.92.22,1.88-.07,2.75-.35,1.18-.38,2.31-.88,3.45-1.36.44-.18.88-.37,1.33-.53.17-.06.41-.09.56-.18.34-.19.81.26-.38-.27l-1.18-.78c-.08-.09-.13.19-.23.34-.23.35-.51.66-.79.96-.87.91-1.87,1.71-2.91,2.44-1.49,1.04-3.1,1.92-4.79,2.61-1.6.65-3.3,1.03-4.87,1.72-.85.37-1.8.9-1.78,1.95.02,1.24,1.12,2.14,2.1,2.7,1.97,1.12,3.85.8,5.84-.11,1.08-.49,2.1-1.09,3.11-1.7.4-.25,1.57-1.14,1.86-1.11l-1.55-.73c-.62-.44-.21-.43-.68-.1-.29.21-.55.49-.83.72-.83.69-1.68,1.36-2.51,2.07-1.4,1.19-3.62,2.82-4.07,4.72-.47,2.03,2.83,3.11,4.36,3.18,1.65.08,3-.88,4.17-1.94,1.55-1.43,2.93-3.03,4.47-4.47s3.2-2.84,4.94-4.08c.55-.39,2-1.64,2.62-1.56l-1.01-.39.03.02-.96-.75c.21.37-1.6,2.3-1.82,2.58-.91,1.17-2.04,2.44-2.54,3.87s.92,2.22,2.17,2.54c1.14.29,2.47-.16,3.38-.86,1.66-1.28,2.86-3.28,4.07-4.96.44-.62.96-1.25,1.26-1.95.49-1.13.51-2.41.54-3.61.02-.97,0-2.02,1.2-2,.84.01,1.4.31,2.14-.31,1.38-1.17,1.77-3.61,1.15-5.25-.76-2.01-3.32-3.28-5.35-3.43-1.07-.08-2.18.11-3.06.74-1.14.81-1.79,2.01-3.07,2.68-.23.12,1.54,1.55,2.05,1.28,1.46-.76,2.23-2.35,3.69-3.04.67-.32,2.3-.73,2.97-.25.5.35.73,1.34.8,1.9.18,1.38-.25,3.27-1.38,4.19-.98.8-2.58-.51-3.18.89-.27.62-.15,1.43-.17,2.09-.03.94-.12,1.95-.48,2.83-.55,1.32-1.63,2.53-2.47,3.67s-1.75,2.47-2.91,3.36c-.54.41-1.87,1.11-2.54.86l1.31.76c-.64-.54,1.21-2.92,1.54-3.37.86-1.18,2.07-2.31,2.73-3.62.49-.97-1.27-1.82-2.1-1.72-1.26.16-2.77,1.59-3.72,2.32-2.4,1.82-4.6,3.88-6.68,6.05-1.49,1.56-3.8,4.4-6.31,3.59.59.19.28.03.32-.41.02-.25.13-.5.24-.73.31-.68.83-1.27,1.33-1.81,1.17-1.28,2.52-2.38,3.85-3.48.51-.42,1.03-.83,1.53-1.26.2-.17.73-.5.78-.78.07-.45-1-.93-1.29-1.06-.56-.25-.84-.31-1.37-.05-1.37.69-2.62,1.63-4,2.32-.77.39-1.58.74-2.41.96-.37.1-.76.18-1.15.2-.04,0-.55-.05-.6-.02-.28-.05-.15.03.39.24-.19-.22-.33-.46-.43-.73-.77-2.44,3.61-3.05,5.11-3.58,2.53-.89,4.92-2.15,7.05-3.78.73-.56,1.45-1.17,2.09-1.83.29-.31.94-.85.98-1.31.08-.93-1.88-1.55-2.63-1.4-1.59.32-3.13,1.27-4.65,1.83-.83.3-1.64.49-2.5.66-.03,0-.28-.02-.32,0,.84.71,1.27.75,1.29.1.04-.17.1-.35.16-.51.19-.48.49-.89.85-1.26,1.89-1.96,5.13-2.66,7.74-2.82,2.17-.14,4.5.92,6.56,0,.2-.09-1.5-1.52-2.05-1.28Z"/><path class="cls-2" d="M61.09,26.68c2.29,4.67,5.51,8.85,9.45,12.25.44.38.96.73,1.53.89.38.11.58-.03.2-.35-3.77-3.25-6.84-7.23-9.03-11.7-.22-.44-.81-.74-1.23-.95-.08-.04-1.07-.42-.93-.14h0Z"/><path class="cls-2" d="M62.82,41.94c1.6-5.27,4.57-10.09,8.52-13.91.77-.75-.78-2.7-1.51-1.99-4.19,4.05-7.25,9.08-8.94,14.66-.28.92,1.54,2.51,1.93,1.25h0Z"/><path class="cls-2" d="M57.07,35c6.53-.82,13.03-1.91,19.47-3.26.55-.12-.2-.51-.35-.57-.52-.2-1.16-.29-1.71-.17-6.31,1.33-12.67,2.39-19.06,3.19-.49.06-.44.28-.09.51.43.29,1.23.37,1.74.31h0Z"/><path class="cls-2" d="M104.02,117.95c-.8,4.21-2.15,8.3-4,12.16-.23.48,2.07,1.43,2.36.84,1.86-3.86,3.2-7.95,4-12.16.13-.66-2.26-1.34-2.36-.84h0Z"/><path class="cls-2" d="M98.53,123.53c4.79-.37,9.58-.74,14.37-1.11.37-.03-.5-.74-.54-.77-.36-.26-.93-.68-1.41-.64-4.79.37-9.58.74-14.37,1.11-.37.03.5.74.54.77.36.26.93.68,1.41.64h0Z"/><path class="cls-2" d="M97.57,119.45c2.92,2.54,5.83,5.08,8.75,7.62.44.38,1.12.67,1.62.2.44-.41.36-1.24-.09-1.63-2.92-2.54-5.83-5.08-8.75-7.62-.44-.38-1.12-.67-1.62-.2-.44.41-.36,1.24.09,1.63h0Z"/><path class="cls-2" d="M97.6,128.3c5.21-3.05,10.42-6.11,15.63-9.16,1.36-.8-.39-2.38-1.54-1.7-5.21,3.05-10.42,6.11-15.63,9.16-1.36.8.39,2.38,1.54,1.7h0Z"/><path class="cls-2" d="M31.1,122.43l.48,1.68c.07.23.24.38.46.47.27.11.63.12.91.06s.61-.17.83-.39c.15-.15.32-.37.26-.6l-.48-1.68c-.07-.23-.24-.38-.46-.47-.27-.11-.63-.12-.91-.06s-.61.17-.83.39c-.15.15-.32.37-.26.6h0Z"/><path class="cls-2" d="M21.11,91.08c.03.15.06.29.11.43.08.22.17.44.28.64.07.13.16.25.25.37.15.19.29.37.47.53.24.21.53.34.85.38.17.02.33.01.49-.04.15-.02.29-.08.42-.16.22-.15.42-.38.43-.66s-.09-.55-.29-.73c-.11-.1-.21-.2-.3-.31l.17.22c-.16-.2-.28-.41-.38-.64l.1.25c-.07-.18-.13-.36-.16-.55-.03-.14-.09-.26-.19-.36-.08-.12-.19-.22-.32-.29-.14-.09-.29-.14-.45-.16-.16-.05-.33-.06-.5-.03-.28.04-.6.14-.79.38l-.15.22c-.08.17-.09.34-.05.52h0Z"/><path class="cls-2" d="M30.26,59.15l1,1.17c.1.09.22.14.35.15.14.04.28.05.42.03.16-.02.31-.06.46-.14.16-.06.3-.15.42-.26.2-.19.41-.44.44-.73v-.25c-.02-.17-.1-.3-.23-.41l-1-1.17c-.1-.09-.22-.14-.35-.15-.14-.04-.28-.05-.42-.03-.16.02-.31.06-.46.14-.16.06-.3.15-.42.26-.2.19-.41.44-.44.73v.25c.02.17.1.3.23.41h0Z"/><path class="cls-2" d="M135.45,62.82l.33,1.34c.02.07.4,0,.38,0,.29-.04.58-.1.87-.17s.57-.15.85-.25l.18-.07c.07-.02.12-.05.15-.11l-.33-1.34c-.02-.07-.4,0-.38,0-.29.04-.58.1-.87.17s-.57.15-.85.25l-.18.07c-.07.02-.12.05-.15.11h0Z"/><path class="cls-2" d="M129.06,102.59l.67,1.5c.05.07.11.1.18.1.1.03.2.03.3,0,.14-.02.27-.06.4-.12.15-.05.3-.12.44-.21.25-.15.52-.32.7-.56.1-.13.23-.3.15-.47l-.67-1.5c-.05-.07-.11-.1-.18-.1-.1-.03-.2-.03-.3,0-.14.02-.27.06-.4.12-.15.05-.3.12-.44.21-.25.15-.52.32-.7.56-.1.13-.23.3-.15.47h0Z"/></g></svg>