<?xml version="1.0" encoding="UTF-8"?><svg id="Calque_2" xmlns="http://www.w3.org/2000/svg" viewBox="0 0 160 160"><defs><style>.cls-1{fill:none;}.cls-1,.cls-2{stroke-width:0px;}.cls-2{fill:#808c54;}</style></defs><g id="team"><rect class="cls-1" width="160" height="160"/></g><g id="patience"><path class="cls-2" d="M99.72,116.13c-7.11-.12-14.21-.24-21.32-.36-.83-.01-1.65-.03-2.48-.04-.61-.01-1.71-.26-2.27.01-.52.25-1,1.06-1.42,1.48-.63.63-1.3,1.24-1.99,1.81-2.02,1.64-4.31,2.71-6.5,4.08-1.82,1.14-7.47,5.67-4.49,7.86,3.62,2.66,9.1,1.98,12.81-.12,4.47-2.54,9.72-1.7,14.6-1,5.43.78,10.86,1.59,16.34,2.04,2.84.24,5.74.47,8.59.21,1.18-.11,2.42-.28,3.48-.84,2.44-1.31,4.57-3.78,5.67-6.27,2.02-4.61.23-9.59-3.21-12.95-.78-.76-2.1-1.16-3.14-1.38-.37-.08-1.87-.28-1.12.45,2.45,2.39,4.01,5.81,3.58,9.27-.4,3.24-2.43,6.14-4.98,8.1-1.71,1.32-3.27,1.57-5.28,1.64-6.99.27-14.13-.98-21.01-1.99-4.45-.65-9.12-1.49-13.62-.79-3.21.5-5.7,2.65-8.93,3.16-.76.12-1.5.08-2.25.13l2.37.96c-.05-.08-.08-.16-.08-.25.04-.13,0-.34.03-.48.07-.38.27-.76.46-1.09.71-1.24,1.74-2.34,2.79-3.3,1.82-1.67,4.14-2.56,6.18-3.9s4-3.09,5.69-4.97l-.42.16c8.59.14,17.19.29,25.78.43,1.08.02-.33-.94-.56-1.07-.98-.53-2.16-.96-3.28-.98h0Z"/><path class="cls-2" d="M89.31,92.3c.47,6.24,2.49,12.32,5.56,17.76,1.42,2.52,3.33,4.51,6.07,5.54s5.89.85,8.66.02c5.55-1.67,10.66-5.63,12.85-11.1,1.07-2.67,1.54-5.55,1.97-8.38s.77-5.55.51-8.4c-.22-2.53.09-4.89.46-7.6.19-1.4.29-3.02-.42-4.3-1.04-1.88-3.4-2.18-5.28-1.58-.87.28-2.04.9-2.06,2-.03,1.68-.06,3.37-.04,5.05,0,.9-.1,1.82.61,2.51,1.12,1.08,2.98.74,3.93-.35,1.08-1.24.82-4.12.67-5.58-.31-3.03-2.23-5.4-5.45-5.41-1.09,0-2.72.74-2.72,2.06v6.88l4.73-.95c-1.13-1.62-2.68-2.84-4.66-3.22-2.2-.42-4.76.1-5.78,2.31-.92,1.98.26,3.46,1.87,4.45.89.55,1.84,1.02,2.76,1.53.1.06.21.16.32.2-.1-.04-.33-.28-.15-.08-.3-.35-.31-.28.08-.56l1.18-.53c.37-.11,1,.52.52,0,.04.04-.36-.25-.23-.15-.15-.11-.53-.48-.73-.72-.62-.72-.98-1.35-1.85-1.81-1.63-.86-4.11-.78-5.12.97-.77,1.33-.05,2.67.64,3.87s1.41,2.39,1.83,3.7c.84,2.68.83,5.69-.48,8.22-.08.15-.16.3-.24.44-.18.32.1-.14-.14.23-.36.55-.74,1.11-1.21,1.57-.1.09-.28.21-.48.39.18-.17.1.16-.12.06.06.03.19-.08.27-.05.38.13.24.14.15-.02.05.09-.26-.31-.33-.4-1.02-1.37-1.53-3.23-2.06-4.82s-.98-3.25-1.23-4.93c-.32-2.13-.62-4.22-1.34-6.26-1.95-5.51-5.67-10.88-11.43-12.83-3.03-1.03-6.42-1.05-9.58-1.19-3.64-.17-7.33-.45-10.97-.23-2.7.16-5.34.62-7.65,2.11-2.55,1.65-4.25,4.29-5.37,7.05-1.42,3.49-2.38,7.29-3.16,10.96-.32,1.51-.56,3.04-.9,4.54-.2.88-.65,2.14-1.04,2.7-.71.98-1.85,1.91-3.22,2.25-.42.11-.78.14-1.17,0-.17-.06-.46-.4-.66-.72-1.21-2.01-1.31-4.86-.96-7.23.09-.6.16-1,.33-1.47.09-.25.19-.49.3-.74.04-.1.09-.19.14-.28-.03.06-.14.24-.04.08.79-1.41,1.41-2.75,1.78-4.35.42-1.83.18-3.83-1.92-4.41-1.89-.52-4.03.8-5.26,2.13-.19.21-1.13,1.18-1.09,1.49,0,0,1.81-.59,1.83-.62,0,.01-.18-.26-.18-.28.01.34-.1.53-.12.87-.01.14.02-.01.21-.1.39-.19.78-.37,1.18-.54.95-.4,1.95-.71,2.89-1.14,1.79-.82,3.03-2.54,2.06-4.52s-3.4-2.67-5.49-2.12c-1.83.48-3.4,1.49-4.71,2.82l4.5,1.2c.53-1.98.59-4.04-.12-5.97-.4-1.1-.89-2.15-1.97-2.74-1.36-.74-3.08-.3-4.14.74-1.64,1.59-1.31,3.65-1.31,5.76,0,.81-.13,1.82.03,2.63.24,1.15,1.46,1.72,2.53,1.61,1.22-.12,2.09-.84,2.39-2.03.32-1.26.12-2.92-.43-4.09-1.23-2.64-4.18-2.49-6.54-1.73-.68.22-1.4,1.06-1.42,1.79-.21,6.56-.27,13.23.36,19.77.39,4.05,1.65,8.05,4.13,11.33,3.64,4.83,9.45,7.34,15.45,7.23,5.12-.09,10.19-1.64,13.41-5.83,4.3-5.58,4.82-13.31,3.8-20.03-.42-2.74-5.32-1.77-4.9.98.78,5.14.6,11.01-2.13,15.61-1.01,1.7-2.43,3.13-4.08,3.88-1.1.5-2.26.77-3.45.95-.24.04-.48.07-.72.1-.83.1.43-.02-.24.02-.28.02-.56.03-.85.04-4.57.15-9.16-1.48-12.01-5.31-.66-.89-1.21-1.88-1.68-2.88-.21-.44-.41-.89-.6-1.35-.06-.14-.12-.28-.17-.42-.04-.1-.08-.21-.12-.31.09.24.11.29.05.13-.49-1.47-.76-2.99-.93-4.54-.69-6.35-.58-12.85-.38-19.22l-1.42,1.79c.09-.03.47-.26.02-.14-.6.16-.04-.36-.2-.05,0,0,.17.73.18.81.02.3.01.9-.09,1.3l4.93-.41c.18.86.01.46.02.09,0-.4,0-.8,0-1.21,0-.72,0-1.44,0-2.16,0-.27,0-.55,0-.82.15-.35.11-.5-.12-.44.09-.17.08-.17-.02-.01.35-.43.14-.35-.63.24l-1.29-.04c-.55-.13-.55-.7-.35.04.03.12.06.12.1.22.14.36.22.74.28,1.12.19,1.14-.04,2.28-.34,3.38-.26.98.77,1.89,1.6,2.12,1.1.3,2.14-.15,2.91-.92.22-.23.62-.47.96-.64.23-.12.74-.22.9-.36-.14.13-.36-.42-.28-.05,0-.04.47-1.25.55-1.18-.1-.08-1.67.65-1.79.7-1.92.75-4.99,1.76-5.26,4.2s2.39,4.58,4.71,4.33c1.2-.13,2.13-.76,2.82-1.74.21-.31.39-.67.65-.95-.03.04.39-.33.25-.23.7-.51.53.2-.38-.16l-1.03-.57c-.52-.54-.12-.5-.32-.09-.11.23-.11.62-.18.87-.17.63-.43,1.25-.72,1.84-.02.05-.44.82-.11.25-.02.04-.05.08-.07.12-.32.54-.64,1.05-.86,1.63-.82,2.16-.97,4.53-.81,6.82s.77,4.76,2.33,6.52c2.07,2.32,5.33,2.24,8.03,1.17,2.49-1,4.66-2.91,5.77-5.37.96-2.13,1.21-4.56,1.67-6.83.62-3.09,1.44-6.18,2.47-9.15.72-2.06,1.63-4.27,3.24-5.74.37-.34.79-.66,1.22-.92-.48.29.13-.05.19-.08.2-.09.39-.17.59-.26.13-.06.27-.11.41-.15-.56.19.16-.04.23-.05.56-.12,1.12-.24,1.69-.31s.49-.06,1.13-.1c.57-.03,1.14-.04,1.71-.05,1.49-.01,2.97.04,4.46.09,3.26.12,6.55.18,9.79.55,1.96.22,3.6.67,5.23,1.82,2.06,1.45,3.61,3.5,4.8,5.7.45.83.83,1.68,1.19,2.55.02.04.26.7.09.23.06.16.12.33.17.49.08.25.16.49.24.74.62,2.06.75,4.17,1.16,6.27.58,2.97,1.59,6.13,2.99,8.81,1.64,3.13,4.86,4.53,8.01,2.45,1.79-1.19,3.17-3.24,4.03-5.19,1.28-2.91,1.38-6.33.59-9.39-.32-1.21-.8-2.38-1.37-3.49-.35-.68-.75-1.34-1.13-2.01-.12-.22-.25-.44-.36-.67-.11-.26-.12-.26-.02,0-.1-.54-.21-.21-.35,1.01l-.97.75c-.97-.03-1.26,0-.85.11.12.04.13.04.02,0,0,0-.1-.06-.08.03.19.55.96,1.24,1.38,1.61.91.8,2.06,1.52,3.3,1.59,3.01.15,4.98-3.37,3.15-5.81-.49-.66-1.21-1.05-1.93-1.44-.58-.31-1.16-.62-1.73-.95-.22-.13-.87-.49-.83-.54,0,0,.22.18.25.46.04.35-.07.28-.26.55-.06.09-.29.15-.34.23l.27.02c-.19-.03-.22-.03-.08,0,.42.09.73.21,1.07.47.19.14.35.32.5.49.31.34-.05-.09.15.19.61.87,1.62,1.26,2.67,1.05.89-.18,2.06-.98,2.06-2v-6.88l-2.72,2.06c.07,0,.31-.04.37.01.45.4-.17-.16.12.12.21.2-.07-.16.07.11.07.14.16.28.22.43.13.32.29,1.33.31,1.82s-.02,1.24-.09,1.83c-.02.23-.06.45-.09.68-.09.72.08-.25.32-.52l3.93-.35h0c.18.32.36.65.54.98-.15-.44-.02.44,0,.14.01-.33,0-.66,0-.99,0-1.53.02-3.06.05-4.59l-2.06,2,.34-.11c.6-.07.49-.19-.33-.35-.02,0-.09-.11-.08-.13-.03.05.1,1.07.09,1.2-.08,1.24-.37,2.46-.53,3.69-.25,1.94-.19,3.84,0,5.78.2,2.12-.08,4.39-.41,6.66s-.65,4.69-1.38,6.93c-1.39,4.28-4.58,7.42-8.73,9.1-1.82.74-3.92,1.15-5.86.64s-3.27-2.05-4.26-3.81c-2.9-5.15-4.72-10.8-5.17-16.69-.1-1.29-1.82-1.79-2.87-1.58-1.29.26-2.13,1.27-2.03,2.57h0Z"/><path class="cls-2" d="M41.75,110.28c-3.49,3.99-5.79,10.15-3.01,15.16,2.52,4.54,8.15,7.09,13.12,7.67,2.46.29,5,.13,7.41-.42,1.21-.28,2.39-1.2,2.28-2.57-.1-1.22-1.43-2.13-2.63-1.86-4.66,1.07-9.48.38-13.5-2.55-1.89-1.38-2.98-3.36-2.99-5.8s1.35-5.09,3.07-7.06c.81-.93.76-2.4-.29-3.12s-2.64-.41-3.47.54h0Z"/><path class="cls-2" d="M55.89,118.17c5.74-.95,11.57-1.08,17.35-.41.91.11,2.13-.59,2.93-.97.43-.21.95-.41,1.31-.73.08-.07.42-.32.13-.35-5.95-.69-11.97-.53-17.88.45-1.11.18-2.21.7-3.2,1.22-.23.12-1.6.96-.64.8h0Z"/><path class="cls-2" d="M18.97,68.7c9.02-.14,18.05-.29,27.07-.43.38,0,.46-.44.47-.72.02-3.46-3.06-7.13-6.57-7.2l3.13,3.34c-.04-4.26-3.51-9.25-7.95-9.82-3.91-.5-7.23,2.65-7.65,6.42l2.58.98c-1.94-2.3-5.01-4.47-8.18-3.81-3.52.73-5.67,4.17-6,7.56-.11,1.09.65,2.12,1.41,2.83.24.22,2.02,1.53,2.12.5.26-2.7,1.63-5.5,4.28-6.58,1.14-.47,2.47-.5,3.6.04.2.1.38.2.56.33.27.18.11.07.23.17.07.06.59.55.26.24-.29-.29.03.04.09.11.13.16,2.44,2.27,2.58.98.29-2.59,1.97-5.02,4.63-5.62.95-.21,2.29-.27,3.09.42.7.6.74,1.79.75,2.65.01,1.36,1.74,3.31,3.13,3.34.2,0,.4.02.59.08.49.19.32-.06-.5-.74,0-.07.16.5.16.48.04.2.06.48.06.71l.47-.72c-9.02.14-18.05.29-27.07.43-1.04.02-.1,1.84.12,2.18.53.8,1.49,1.89,2.55,1.88Z"/><path class="cls-2" d="M120,53.8c9.74-.14,19.48-.29,29.22-.43l.12-.06c.09-1.64-.25-3.29-1.23-4.64-1.02-1.42-2.66-2.16-4.26-2.73s-3.41-1.17-5.04-.47c-.93.4-1.75,1.1-2.36,1.9l4.72,1.64c.22-4.23-3.71-6.19-7.39-6.8-3.15-.52-5.53,2.11-5.5,5.16,0,.79,4.66,1.94,4.72,1.64.5-2.25.68-5.43-1.27-7.11-1.19-1.02-2.98-1.54-4.47-1.9-1.28-.31-2.39-.23-3.58.36-4.5,2.26-7.32,6.93-8.3,11.73-.14.71,4.66,1.97,4.72,1.64.8-3.93,2.67-7.37,5.75-9.97.74-.62,1.51-1.23,2.38-1.66.48-.25.97-.32,1.47-.51l.3-.03-2.8-.98c.06.13.26.25.35.37,1.4,1.72,1.16,4.42.71,6.42l4.72,1.64c-.02-2,.97-4.11,2.93-4.87.35-.14.84-.1,1.16-.25l-2.46-.85.29.22c.17.21.38.39.55.61.78,1.02,1.03,2.25.97,3.51-.03.63,4.35,2.14,4.72,1.64.51-.67,1.16-1.27,1.91-1.66.32-.17.64-.29.99-.36.19-.05.38-.07.58-.06l-2.27-.77c.1.2.53.44.7.63.22.24.41.5.58.77.42.66.69,1.4.84,2.16s.38,1.68-.53,1.91c-.8.2-1.9.03-2.72.04-.99.01-1.98.03-2.97.04-7.59.11-15.19.22-22.78.34-.41,0,1.39.95,1.5.99.92.36,1.98.78,2.99.77Z"/><path class="cls-2" d="M61.93,69.95c1.43-.86,2.86-1.72,4.3-2.58.38-.23.91-.6,1.17-.98.12-.18.28-.49-.03-.59-.37-.12-.88.06-1.21.18-.61.22-1.18.51-1.73.85-1.43.86-2.86,1.72-4.3,2.58-.38.23-.91.6-1.17.98-.12.18-.28.49.03.59.37.12.88-.06,1.21-.18.61-.22,1.18-.51,1.73-.85h0Z"/><path class="cls-2" d="M56.08,60.9h7.3c.66,0,1.28-.04,1.92-.23.42-.13,1.08-.37,1.39-.73.2-.24.38-.56.11-.83-.3-.3-.84-.41-1.24-.41h-7.3c-.66,0-1.28.04-1.92.23-.42.13-1.08.37-1.39.73-.2.24-.38.56-.11.83.3.3.84.41,1.24.41h0Z"/><path class="cls-2" d="M58.64,47.56c2.29,1.43,4.58,2.86,6.88,4.3.54.34,1.21.55,1.85.57.5.02,1.21-.07,1.62-.4.35-.28.63-.68.51-1.16-.12-.5-.48-.92-.91-1.19-2.29-1.43-4.58-2.86-6.88-4.3-.54-.34-1.21-.55-1.85-.57-.5-.02-1.21.07-1.62.4-.35.28-.63.68-.51,1.16.12.5.48.92.91,1.19h0Z"/><path class="cls-2" d="M68.94,38.12c.72,1.43,1.43,2.86,2.15,4.3.05.18.16.3.33.38.17.13.37.21.6.22.56.1,1.26.02,1.79-.14s1.18-.39,1.61-.8c.22-.21.66-.64.48-.99-.72-1.43-1.43-2.86-2.15-4.3-.05-.18-.16-.3-.33-.38-.17-.13-.37-.21-.6-.22-.56-.1-1.26-.02-1.79.14s-1.18.39-1.61.8c-.22.21-.66.64-.48.99h0Z"/><path class="cls-2" d="M85.1,34.47c-.29,2.29-.57,4.58-.86,6.88-.06.49.36,1.19.63,1.54.37.47.97.96,1.55,1.16.45.15,1.04.31,1.49.05s.56-.59.62-1.08c.29-2.29.57-4.58.86-6.88.06-.49-.36-1.19-.63-1.54-.37-.47-.97-.96-1.55-1.16-.45-.15-1.04-.31-1.49-.05s-.56.59-.62,1.08h0Z"/><path class="cls-2" d="M102.42,43.1c-2.43,1.58-4.87,3.15-7.3,4.73-.87.56-1.26,1.93-.31,2.61,1.05.75,2.46.5,3.48-.16,2.43-1.58,4.87-3.15,7.3-4.73.87-.56,1.26-1.93.31-2.61-1.05-.75-2.46-.5-3.48.16h0Z"/><path class="cls-2" d="M106.46,57.01c-2.15-.43-4.3-.86-6.45-1.29-.65-.13-1.22-.16-1.86.08-.54.2-1.17.64-1.45,1.16-.25.47-.42,1.05-.19,1.56.21.48.64.94,1.18,1.05,2.15.43,4.3.86,6.45,1.29.65.13,1.22.16,1.86-.08.54-.2,1.17-.64,1.45-1.16.25-.47.42-1.05.19-1.56-.21-.48-.64-.94-1.18-1.05h0Z"/><path class="cls-2" d="M104.92,74.06c-2.43-2.29-4.87-4.58-7.3-6.88-.36-.34-.82-.76-1.32-.87-.32-.07-.73-.03-.86.33-.16.42-.02.94.14,1.33.25.59.6,1.17,1.07,1.61,2.43,2.29,4.87,4.58,7.3,6.88.36.34.82.76,1.32.87.32.07.73.03.86-.33.16-.42.02-.94-.14-1.33-.25-.59-.6-1.17-1.07-1.61h0Z"/><path class="cls-2" d="M77.59,62.14c1.27,1.14,2.89,1.8,4.6,1.79,1.29,0,2.6-.4,3.66-1.12.65-.44,1-1.34.54-2.05-.42-.65-1.36-1.01-2.05-.54-.17.12-.35.23-.54.32-.06.03-.13.06-.19.09-.04.02-.24.11-.03.02.23-.1-.04.01-.09.03-.06.02-.13.04-.19.06-.27.09-.54.14-.82.19.6-.11.25-.03.1-.02-.1,0-.2.01-.31.01-.12,0-.24,0-.36,0-.06,0-.12,0-.18-.01-.06,0-.34-.04-.08,0s0,0-.05-.01c-.09-.02-.17-.03-.26-.05-.17-.04-.33-.09-.49-.14-.04-.01-.07-.03-.11-.04-.08-.03-.07-.03,0,0,.1.05.09.04-.05-.02l-.11-.05c-.15-.07-.3-.16-.44-.25-.1-.06-.26-.23-.37-.25.04,0,.25.21.1.07-.06-.05-.11-.1-.17-.15-.58-.52-1.55-.62-2.12,0-.52.57-.62,1.56,0,2.12h0Z"/><path class="cls-2" d="M72.91,55.47c.32,1.68,1.67,3.12,3.32,3.56.86.23,1.82.21,2.66-.1.98-.37,1.73-.97,2.35-1.81.22-.29.24-.82.15-1.16s-.36-.73-.69-.9c-.35-.18-.77-.28-1.16-.15s-.65.36-.9.69c.27-.37-.01,0-.1.09-.06.06-.12.12-.19.17-.15.14.06-.05.1-.08-.13.07-.26.17-.39.24-.06.03-.13.06-.19.09.09-.05.32-.12.09-.05-.13.04-.26.08-.4.11-.3.06.1,0,.11-.01,0,.02-.18.01-.21.01-.07,0-.14,0-.21,0-.13,0-.35-.08.06.02-.13-.03-.25-.05-.38-.09-.06-.02-.12-.04-.18-.06-.16-.04.35.18.11.05-.11-.06-.23-.12-.34-.18-.05-.03-.11-.07-.16-.11-.15-.1.28.24.09.07-.09-.09-.19-.17-.27-.27s-.19-.29.04.07c-.03-.04-.06-.08-.09-.13-.08-.12-.15-.24-.22-.37s-.03-.22.04.11c-.01-.06-.05-.13-.07-.19-.05-.14-.08-.28-.11-.43-.15-.77-1.12-1.28-1.85-1.05-.82.27-1.21,1.02-1.05,1.85h0Z"/><path class="cls-2" d="M82.51,57.54c.91,1.19,2.2,2.12,3.7,2.36,1.86.3,3.76-.28,5.1-1.63.55-.56.6-1.57,0-2.12s-1.53-.6-2.12,0c-.05.06-.38.29-.37.33,0-.04.37-.27.11-.09-.05.04-.11.08-.17.11-.12.08-.25.16-.39.22-.05.02-.38.16-.12.06s-.05.02-.11.03c-.19.07-.39.11-.59.16-.33.08.35-.02,0,0-.11,0-.21.01-.32.01-.1,0-.2,0-.3,0-.06,0-.13-.01-.19-.02.23.03.28.04.17.02-.19-.04-.38-.08-.57-.14-.08-.03-.16-.08-.24-.09.14.02.3.13.06.02-.14-.07-.27-.14-.4-.22-.06-.04-.12-.08-.18-.12-.05-.03-.31-.23-.07-.04s-.11-.1-.17-.16c-.07-.07-.14-.14-.21-.21-.13-.14-.47-.58-.03,0-.25-.32-.49-.58-.9-.69-.36-.1-.84-.05-1.16.15-.61.4-1.05,1.39-.54,2.05h0Z"/><path class="cls-2" d="M85.99,45.13c-5.59-.95-11.73,2.09-15.32,6.28s-3.77,10.42-.4,14.85,8.85,5.97,14,4.3c5.45-1.77,11.07-6.16,11.73-12.22.68-6.26-3.93-12-10.01-13.21-.89-.18-2.17.75-2.85,1.22-.18.12-1.79,1.37-1.14,1.5,4.41.88,8.12,4.28,9.34,8.62.65,2.3.52,4.75-.36,6.97-.64,1.6-1.85,3.55-3.35,4.34-3.52,1.85-8.41.32-11.28-2.18-3.38-2.95-5.06-7.65-3.77-12.02.56-1.88,1.86-4.16,3.47-5.08s4.06-.98,5.96-.66c.91.15,2.15-.74,2.85-1.22.17-.12,1.79-1.39,1.14-1.5Z"/></g></svg>